<mxfile host="www.draw.io" modified="2019-10-24T05:50:53.220Z" agent="Mozilla/5.0 (Macintosh; Intel Mac OS X 10_15_0) AppleWebKit/537.36 (KHTML, like Gecko) Chrome/77.0.3865.120 Safari/537.36" etag="6EEW-6Qwf1z1CXgobfJl" version="12.1.4" type="github" pages="1">
  <diagram name="Page-1" id="2c4490ee-f0b8-94ab-5012-d5dc3445f7a3">
    <mxGraphModel dx="1426" dy="745" grid="1" gridSize="10" guides="1" tooltips="1" connect="0" arrows="1" fold="1" page="1" pageScale="1.5" pageWidth="1169" pageHeight="826" background="#ffffff" math="0" shadow="0">
      <root>
        <mxCell id="0" style=";html=1;"/>
        <mxCell id="1" style=";html=1;" parent="0"/>
        <mxCell id="67c90442a009f359-279" value="2019/07" style="fillColor=#FFFFFF;strokeColor=#000000;strokeWidth=1;fontColor=#000000;fontStyle=0;html=1;shadow=0;rounded=1;" parent="1" vertex="1">
          <mxGeometry x="300" y="439" width="70" height="20" as="geometry"/>
        </mxCell>
        <mxCell id="7a8b956e7d50b54d-104" value="2019/08" style="fillColor=#FFFFFF;strokeColor=#000000;strokeWidth=1;fontColor=#000000;fontStyle=0;html=1;shadow=0;rounded=1;" parent="1" vertex="1">
          <mxGeometry x="370" y="439" width="70" height="20" as="geometry"/>
        </mxCell>
        <mxCell id="7a8b956e7d50b54d-109" value="2019/09" style="fillColor=#FFFFFF;strokeColor=#000000;strokeWidth=1;fontColor=#000000;fontStyle=0;html=1;shadow=0;rounded=1;" parent="1" vertex="1">
          <mxGeometry x="440" y="439" width="70" height="20" as="geometry"/>
        </mxCell>
        <mxCell id="7a8b956e7d50b54d-114" value="2019/10" style="fillColor=#FFFFFF;strokeColor=#000000;strokeWidth=1;fontColor=#000000;fontStyle=0;html=1;shadow=0;rounded=1;" parent="1" vertex="1">
          <mxGeometry x="510" y="439" width="70" height="20" as="geometry"/>
        </mxCell>
        <mxCell id="7a8b956e7d50b54d-119" value="2019/11" style="fillColor=#FFFFFF;strokeColor=#000000;strokeWidth=1;fontColor=#000000;fontStyle=0;html=1;shadow=0;rounded=1;" parent="1" vertex="1">
          <mxGeometry x="580" y="439" width="70" height="20" as="geometry"/>
        </mxCell>
        <mxCell id="7a8b956e7d50b54d-124" value="2019/12" style="fillColor=#FFFFFF;strokeColor=#000000;strokeWidth=1;fontColor=#000000;fontStyle=0;html=1;shadow=0;rounded=1;" parent="1" vertex="1">
          <mxGeometry x="650" y="439" width="70" height="20" as="geometry"/>
        </mxCell>
        <mxCell id="7a8b956e7d50b54d-129" value="2020/01" style="fillColor=#FFFFFF;strokeColor=#000000;strokeWidth=1;fontColor=#000000;fontStyle=0;html=1;shadow=0;rounded=1;" parent="1" vertex="1">
          <mxGeometry x="720" y="439" width="70" height="20" as="geometry"/>
        </mxCell>
        <mxCell id="7a8b956e7d50b54d-134" value="2020/02" style="fillColor=#FFFFFF;strokeColor=#000000;strokeWidth=1;fontColor=#000000;fontStyle=0;html=1;shadow=0;rounded=1;" parent="1" vertex="1">
          <mxGeometry x="790" y="439" width="70" height="20" as="geometry"/>
        </mxCell>
        <mxCell id="7a8b956e7d50b54d-139" value="2020/03" style="fillColor=#FFFFFF;strokeColor=#000000;strokeWidth=1;fontColor=#000000;fontStyle=0;html=1;shadow=0;rounded=1;" parent="1" vertex="1">
          <mxGeometry x="860" y="439" width="70" height="20" as="geometry"/>
        </mxCell>
        <mxCell id="7a8b956e7d50b54d-145" value="2019/06" style="fillColor=#FFFFFF;strokeColor=#000000;strokeWidth=1;fontColor=#000000;fontStyle=0;html=1;shadow=0;rounded=1;" parent="1" vertex="1">
          <mxGeometry x="230" y="439" width="70" height="20" as="geometry"/>
        </mxCell>
        <mxCell id="7a8b956e7d50b54d-151" value="2019/05" style="fillColor=#FFFFFF;strokeColor=#000000;strokeWidth=1;fontColor=#000000;fontStyle=0;html=1;shadow=0;rounded=1;" parent="1" vertex="1">
          <mxGeometry x="160" y="439" width="70" height="20" as="geometry"/>
        </mxCell>
        <mxCell id="7a8b956e7d50b54d-157" value="2020/04" style="fillColor=#FFFFFF;strokeColor=#000000;strokeWidth=1;fontColor=#000000;fontStyle=0;html=1;shadow=0;rounded=1;" parent="1" vertex="1">
          <mxGeometry x="930" y="439" width="70" height="20" as="geometry"/>
        </mxCell>
        <mxCell id="7a8b956e7d50b54d-353" value="硬體委外開發" style="align=center;strokeColor=#6c8ebf;html=1;fillColor=#dae8fc;fontStyle=1;shadow=0;rounded=1;" parent="1" vertex="1">
          <mxGeometry x="200" y="459" width="290" height="20" as="geometry"/>
        </mxCell>
        <mxCell id="7a8b956e7d50b54d-354" value="軟體功能開發" style="align=center;strokeColor=#6c8ebf;html=1;fillColor=#dae8fc;fontStyle=1;shadow=0;rounded=1;" parent="1" vertex="1">
          <mxGeometry x="160" y="519" width="420" height="20" as="geometry"/>
        </mxCell>
        <mxCell id="7a8b956e7d50b54d-355" value="安規送驗" style="align=center;strokeColor=#6c8ebf;html=1;fillColor=#dae8fc;fontStyle=1;shadow=0;rounded=1;" parent="1" vertex="1">
          <mxGeometry x="720" y="580" width="210" height="20" as="geometry"/>
        </mxCell>
        <mxCell id="7a8b956e7d50b54d-358" value="小批量4台試產" style="align=center;strokeColor=#6c8ebf;html=1;fillColor=#dae8fc;fontStyle=1;shadow=0;rounded=1;" parent="1" vertex="1">
          <mxGeometry x="580" y="499" width="140" height="20" as="geometry"/>
        </mxCell>
        <mxCell id="c4RQWpJA4Gw6nRBEv-Ae-6" value="2020/05" style="fillColor=#FFFFFF;strokeColor=#000000;strokeWidth=1;fontColor=#000000;fontStyle=0;html=1;shadow=0;rounded=1;" vertex="1" parent="1">
          <mxGeometry x="1000" y="439" width="70" height="20" as="geometry"/>
        </mxCell>
        <mxCell id="7a8b956e7d50b54d-357" value="G2E Asia" style="align=center;strokeColor=#82b366;html=1;fillColor=#d5e8d4;fontStyle=1;shadow=0;rounded=1;" parent="1" vertex="1">
          <mxGeometry x="1000" y="600" width="70" height="20" as="geometry"/>
        </mxCell>
        <mxCell id="7a8b956e7d50b54d-356" value="GLI 送驗" style="align=center;strokeColor=#6c8ebf;html=1;fillColor=#dae8fc;fontStyle=1;shadow=0;rounded=1;" parent="1" vertex="1">
          <mxGeometry x="930" y="580" width="140" height="20" as="geometry"/>
        </mxCell>
        <mxCell id="c4RQWpJA4Gw6nRBEv-Ae-29" value="WS1 驗證" style="align=center;strokeColor=#82b366;html=1;fillColor=#d5e8d4;fontStyle=1;shadow=0;rounded=1;" vertex="1" parent="1">
          <mxGeometry x="490" y="479" width="90" height="20" as="geometry"/>
        </mxCell>
        <mxCell id="c4RQWpJA4Gw6nRBEv-Ae-32" value="Jumbo Club 驗證" style="align=center;strokeColor=#6c8ebf;html=1;fillColor=#dae8fc;fontStyle=1;shadow=0;rounded=1;" vertex="1" parent="1">
          <mxGeometry x="720" y="560" width="210" height="20" as="geometry"/>
        </mxCell>
        <mxCell id="c4RQWpJA4Gw6nRBEv-Ae-33" value="軟體ECR進測" style="align=center;strokeColor=#6c8ebf;html=1;fillColor=#dae8fc;fontStyle=1;shadow=0;rounded=1;" vertex="1" parent="1">
          <mxGeometry x="580" y="540" width="140" height="20" as="geometry"/>
        </mxCell>
      </root>
    </mxGraphModel>
  </diagram>
</mxfile>
